<svg xmlns="http://www.w3.org/2000/svg"  viewBox="0 0 100 100" width="400px" height="400px"><path d="M50.985,91c-16.129,0-27.416-4.323-33.548-12.851 c-5.014-6.972-5.126-14.784-4.482-19.729c-3.45-3.299-7.137-9.813-7.137-22.582c0-2.932-1.173-4.258-1.384-4.473 c-1.704-1.354-2.608-3.463-2.407-5.664c0.207-2.26,1.543-4.214,3.575-5.227c0.897-0.431,5.315-2.406,11.167-2.406 c5.355,0,12.928,1.696,19.072,9.623c0.021,0,0.044,0,0.067,0c0.917,0,2.291-0.099,3.859-0.218C42.527,27.263,45.966,27,50.5,27 c4.912,0,8.568,0.265,11.507,0.478c1.609,0.117,3.016,0.213,3.967,0.213c0.056,0,0.108,0,0.158-0.001 c6.141-7.923,13.715-9.621,19.069-9.621c6.017,0,10.609,2.137,11.113,2.381c2.086,1.039,3.423,2.993,3.629,5.253 c0.2,2.189-0.694,4.288-2.399,5.656c-0.199,0.201-1.393,1.528-1.393,4.48c0,12.769-3.688,19.282-7.137,22.582 c0.645,4.944,0.532,12.757-4.482,19.729C78.401,86.677,67.114,91,50.985,91z" opacity=".35"/><path fill="#f2f2f2" d="M48.985,89c-16.129,0-27.416-4.323-33.548-12.851c-5.014-6.972-5.126-14.784-4.482-19.729 c-3.45-3.299-7.137-9.813-7.137-22.582c0-2.932-1.173-4.258-1.384-4.473c-1.704-1.354-2.608-3.463-2.407-5.664 c0.207-2.26,1.543-4.214,3.575-5.227c0.897-0.431,5.315-2.406,11.167-2.406c5.355,0,12.928,1.696,19.072,9.623 c0.021,0,0.044,0,0.067,0c0.917,0,2.291-0.099,3.859-0.218C40.527,25.263,43.966,25,48.5,25c4.912,0,8.568,0.265,11.507,0.478 c1.609,0.117,3.016,0.213,3.967,0.213c0.056,0,0.108,0,0.158-0.001c6.141-7.923,13.715-9.621,19.069-9.621 c6.017,0,10.609,2.137,11.113,2.381c2.086,1.039,3.423,2.993,3.629,5.253c0.2,2.189-0.694,4.288-2.399,5.656 c-0.199,0.201-1.393,1.528-1.393,4.48c0,12.769-3.688,19.282-7.137,22.582c0.645,4.944,0.532,12.757-4.482,19.729 C76.401,84.677,65.114,89,48.985,89z"/><path fill="#d47f56" d="M65,33c0,0-9.903-1-18-1c-8.837,0-15,1-15,1c-9-17-25.5-8.706-25.5-8.706s3.818,2.864,3.818,9.545 c0,18.136,7.794,19.919,7.794,19.919l-0.391,10.255c0,8.254,12.882,17.463,21.135,17.463h19.54 c8.254,0,22.254-10.21,22.254-18.464l-1.103-9.255c3.09-0.749,7.769-4.595,7.769-19.714c0-6.682,4.543-10.008,4.543-10.008 S79.551,15.365,65,33z"/><path fill="#fff" d="M45.078,53.758c0,0-3.28,3.944-7.325,3.944s-7.325-3.944-7.325-3.944s3.28-3.944,7.325-3.944 S45.078,53.758,45.078,53.758z"/><path fill="#fff" d="M62.658,67.075c0,7.614-5.852,13.992-13.673,13.992s-13.816-6.525-13.816-14.139 S62.658,59.461,62.658,67.075z"/><circle cx="35.769" cy="52.964" r="12.339" fill="#fff"/><path fill="#fedeb3" d="M44.582,52.964c0,0-1.356,7.457-8.813,7.457s-8.813-7.457-8.813-7.457s1.356-7.457,8.813-7.457 S44.582,52.964,44.582,52.964z"/><path fill="#40396e" d="M41.87,51.608c0-0.409-0.044-0.808-0.12-1.194c-1.572-1.124-3.669-2.195-5.981-2.195 c-2.312,0-4.409,1.071-5.981,2.195c-0.077,0.387-0.12,0.785-0.12,1.194c0,3.37,2.732,6.101,6.101,6.101 S41.87,54.978,41.87,51.608z"/><circle cx="37.803" cy="50.93" r="1.356" fill="#fff"/><path fill="#fedeb3" d="M71.61,52.964c0,0-1.356,7.457-8.813,7.457s-8.813-7.457-8.813-7.457s1.356-7.457,8.813-7.457 S71.61,52.964,71.61,52.964z"/><path fill="#fff" d="M71.61,52.964c0,0-3.946,4.746-8.813,4.746s-8.813-4.746-8.813-4.746s3.946-4.746,8.813-4.746 S71.61,52.964,71.61,52.964z"/><path fill="#40396e" d="M68.898,51.608c0-0.409-0.044-0.808-0.12-1.194c-1.572-1.124-3.669-2.195-5.981-2.195 s-4.409,1.071-5.981,2.195c-0.077,0.387-0.12,0.785-0.12,1.194c0,3.37,2.732,6.101,6.101,6.101 C66.166,57.71,68.898,54.978,68.898,51.608z"/><circle cx="64.83" cy="50.93" r="1.356" fill="#fff"/><g><ellipse cx="48.985" cy="67.065" fill="#fedeb3" rx="14.101" ry="7.638"/><path fill="#40396e" d="M63.086,67.065c0-0.504-0.096-0.995-0.267-1.471c-0.549,0.836-1.624,1.807-3.7,1.807 c-2.242,0-3.778-0.405-5.264-0.798c-1.39-0.367-2.702-0.714-4.421-0.714c-1.719,0-3.031,0.347-4.421,0.714 c-1.486,0.392-3.022,0.798-5.264,0.798c-2.979,0-3.915-1.998-4.156-2.72c-0.455,0.751-0.71,1.551-0.71,2.384 c0,0.241,0.026,0.479,0.067,0.715c1.013,1.08,2.559,1.972,4.799,1.972c2.501,0,4.239-0.459,5.774-0.864 c1.315-0.348,2.45-0.647,3.911-0.647c1.46,0,2.595,0.3,3.911,0.647c1.535,0.405,3.273,0.864,5.774,0.864 c1.495,0,2.678-0.4,3.604-0.984C62.953,68.219,63.086,67.651,63.086,67.065z" opacity=".35"/><ellipse cx="48.985" cy="59.618" fill="#ffb789" rx="4.883" ry="2.442"/></g><path fill="#ffb789" d="M23.592,41.55c-3.653,6.697-3.962,12.208-3.962,12.208l-5.789-3.944l-3.519-15.386l-3.225-9.583 l5.052-2.539h7.319l2.171,2.64C21.638,24.946,29.452,30.806,23.592,41.55z"/><path fill="#ffb789" d="M74.334,41.259c3.653,6.697,3.962,12.208,3.962,12.208l5.789-3.944l3.519-15.386l3.225-9.583 l-5.052-2.539h-7.319l-2.171,2.64C76.288,24.656,68.474,30.516,74.334,41.259z"/><path fill="none" stroke="#40396e" stroke-linecap="round" stroke-linejoin="round" stroke-miterlimit="10" stroke-width="3" d="M68.766,30.344c9.212-12.755,22.704-6.05,22.704-6.05s-3.818,2.864-3.818,9.545c0,18.136-7.902,19.568-7.902,19.568 S89.517,82.5,48.985,82.5S18.22,53.407,18.22,53.407s-7.902-1.432-7.902-19.568c0-6.682-3.818-9.545-3.818-9.545 s13.493-6.705,22.704,6.05C31.604,33.666,36.015,31.5,48.5,31.5C62.015,31.5,66.366,33.666,68.766,30.344z"/></svg>